<svg width="12" height="12" viewBox="0 0 12 12" fill="none" xmlns="http://www.w3.org/2000/svg">
<path d="M9.50145 6.55499H1.39564C1.14345 6.55499 0.945312 6.31516 0.945312 6.00992C0.945312 5.70468 1.14345 5.46484 1.39564 5.46484H9.50145C9.75363 5.46484 9.95177 5.70468 9.95177 6.00992C9.95177 6.31516 9.75363 6.55499 9.50145 6.55499Z" fill="#1D1D1D"/>
<path d="M6.68179 10.3719C6.6103 10.3727 6.53943 10.3586 6.47371 10.3305C6.408 10.3023 6.34891 10.2607 6.30024 10.2083C6.08221 9.99031 6.08221 9.65236 6.30024 9.43433L9.73419 6.00038L6.30024 2.56643C6.08221 2.3484 6.08221 2.01046 6.30024 1.79243C6.51827 1.5744 6.85621 1.5744 7.07424 1.79243L10.8897 5.60793C11.1078 5.82596 11.1078 6.1639 10.8897 6.38193L7.07424 10.1974C6.96523 10.3064 6.82351 10.361 6.69269 10.361L6.68179 10.3719Z" fill="#1D1D1D"/>
</svg>
