<svg width="26" height="26" viewBox="0 0 26 26" fill="none" xmlns="http://www.w3.org/2000/svg">
<path d="M22.9167 0.195801C23.6681 0.195801 24.3888 0.494312 24.9201 1.02566C25.4515 1.55702 25.75 2.27769 25.75 3.02913V22.8625C25.75 23.6139 25.4515 24.3346 24.9201 24.8659C24.3888 25.3973 23.6681 25.6958 22.9167 25.6958H3.08333C2.33189 25.6958 1.61122 25.3973 1.07986 24.8659C0.548511 24.3346 0.25 23.6139 0.25 22.8625V3.02913C0.25 2.27769 0.548511 1.55702 1.07986 1.02566C1.61122 0.494312 2.33189 0.195801 3.08333 0.195801H22.9167ZM22.2083 22.1541V14.6458C22.2083 13.4209 21.7218 12.2463 20.8557 11.3801C19.9895 10.514 18.8149 10.0275 17.59 10.0275C16.3858 10.0275 14.9833 10.7641 14.3033 11.8691V10.2966H10.3508V22.1541H14.3033V15.17C14.3033 14.0791 15.1817 13.1866 16.2725 13.1866C16.7985 13.1866 17.303 13.3956 17.6749 13.7675C18.0469 14.1395 18.2558 14.644 18.2558 15.17V22.1541H22.2083ZM5.74667 8.07247C6.37788 8.07247 6.98324 7.82172 7.42958 7.37538C7.87592 6.92905 8.12667 6.32368 8.12667 5.69247C8.12667 4.37497 7.06417 3.2983 5.74667 3.2983C5.11169 3.2983 4.50273 3.55054 4.05373 3.99954C3.60474 4.44853 3.3525 5.05749 3.3525 5.69247C3.3525 7.00997 4.42917 8.07247 5.74667 8.07247M7.71583 22.1541V10.2966H3.79167V22.1541H7.71583V22.1541Z" fill="#FFFBF5"/>
</svg>
