<svg width="27" height="22" viewBox="0 0 27 22" fill="none" xmlns="http://www.w3.org/2000/svg">
<path d="M23.3438 0.655273H3.65627C2.78631 0.656204 1.95225 1.00221 1.3371 1.61736C0.721947 2.23251 0.375946 3.06657 0.375015 3.93652V17.999C0.375946 18.869 0.721947 19.703 1.3371 20.3182C1.95225 20.9333 2.78631 21.2793 3.65627 21.2803H23.3438C24.2137 21.2793 25.0478 20.9333 25.6629 20.3182C26.2781 19.703 26.6241 18.869 26.625 17.999V3.93652C26.6241 3.06657 26.2781 2.23251 25.6629 1.61736C25.0478 1.00221 24.2137 0.656204 23.3438 0.655273V0.655273ZM22.5129 6.08281L14.0754 12.6453C13.9109 12.7732 13.7084 12.8427 13.5 12.8427C13.2916 12.8427 13.0892 12.7732 12.9246 12.6453L4.48712 6.08281C4.38799 6.00795 4.30473 5.91413 4.24216 5.80681C4.1796 5.69949 4.139 5.5808 4.1227 5.45765C4.10641 5.3345 4.11475 5.20934 4.14724 5.08944C4.17974 4.96954 4.23574 4.8573 4.31199 4.75923C4.38824 4.66116 4.48322 4.57922 4.59141 4.51818C4.6996 4.45713 4.81884 4.4182 4.94221 4.40364C5.06558 4.38908 5.19061 4.39918 5.31004 4.43336C5.42947 4.46754 5.54092 4.52511 5.63791 4.60273L13.5 10.7176L21.3621 4.60273C21.5587 4.45427 21.8059 4.38916 22.0501 4.42147C22.2943 4.45379 22.516 4.58094 22.6672 4.77542C22.8184 4.96991 22.887 5.2161 22.8581 5.46076C22.8293 5.70542 22.7052 5.92888 22.5129 6.08281Z" fill="#FFFBF5"/>
</svg>
