<svg width="29" height="29" viewBox="0 0 29 29" fill="none" xmlns="http://www.w3.org/2000/svg">
<path d="M14.2767 0.75708C12.4164 0.75708 10.5742 1.12351 8.85539 1.83545C7.13662 2.5474 5.57489 3.5909 4.2594 4.9064C1.60263 7.56317 0.110077 11.1665 0.110077 14.9237C0.110077 21.1854 4.17591 26.4979 9.80008 28.3821C10.5084 28.4954 10.7351 28.0562 10.7351 27.6737V25.2796C6.81091 26.1296 5.97508 23.3812 5.97508 23.3812C5.32341 21.7379 4.40258 21.2987 4.40258 21.2987C3.11341 20.4204 4.50174 20.4487 4.50174 20.4487C5.91841 20.5479 6.66924 21.9079 6.66924 21.9079C7.90174 24.0612 9.98424 23.4237 10.7917 23.0837C10.9192 22.1629 11.2876 21.5396 11.6842 21.1854C8.53924 20.8312 5.23841 19.6129 5.23841 14.2154C5.23841 12.6429 5.77674 11.3821 6.69758 10.3762C6.55591 10.0221 6.06008 8.54875 6.83924 6.63625C6.83924 6.63625 8.02924 6.25375 10.7351 8.08125C11.8542 7.76958 13.0726 7.61375 14.2767 7.61375C15.4809 7.61375 16.6992 7.76958 17.8184 8.08125C20.5242 6.25375 21.7142 6.63625 21.7142 6.63625C22.4934 8.54875 21.9976 10.0221 21.8559 10.3762C22.7767 11.3821 23.3151 12.6429 23.3151 14.2154C23.3151 19.6271 20.0001 20.8171 16.8409 21.1712C17.3509 21.6104 17.8184 22.4746 17.8184 23.7921V27.6737C17.8184 28.0562 18.0451 28.5096 18.7676 28.3821C24.3917 26.4837 28.4434 21.1854 28.4434 14.9237C28.4434 13.0634 28.077 11.2212 27.365 9.5024C26.6531 7.78362 25.6096 6.2219 24.2941 4.9064C22.9786 3.5909 21.4169 2.5474 19.6981 1.83545C17.9793 1.12351 16.1371 0.75708 14.2767 0.75708V0.75708Z" fill="#FFFBF5"/>
</svg>
