<svg width="234" height="332" viewBox="0 0 234 332" fill="none" xmlns="http://www.w3.org/2000/svg">
<path d="M61.0847 154.33L37.8175 164.061C39.0229 164.392 40.21 164.767 41.4067 165.115L44.9509 166.258C47.3173 167.017 49.6653 167.847 52.0046 168.677C54.3435 169.526 56.6828 170.374 58.9951 171.293C61.2721 172.186 63.5578 173.097 65.7986 174.088C67.0485 166.07 68.9235 157.508 71.3788 155.517L61.0847 154.33ZM37.8175 164.061V180.597C42.1208 182.597 51.7636 185.757 63.9327 189.382C63.9327 189.382 64.5666 182.007 65.7986 174.106C63.4327 173.445 61.0847 172.704 58.7632 171.936C56.3973 171.177 54.0488 170.347 51.71 169.517C49.3706 168.668 47.0313 167.82 44.719 166.901L41.255 165.526C40.1119 165.035 38.9514 164.579 37.8175 164.061ZM204.785 172.802C203.902 172.534 203.035 172.24 202.178 171.892L203.366 176.606C204.521 175.467 205.746 174.403 207.035 173.418C206.285 173.231 205.526 173.034 204.785 172.802Z" fill="#FFFBF5"/>
<path d="M125.762 190.856C138.181 188.856 172.153 177.802 178.269 173.151C182.769 169.722 187.92 164.106 188.59 150.714C189.572 156.812 190.581 162.91 191.616 169.008L191.652 169.222C190.893 168.794 190.075 168.478 189.224 168.285C188.268 168.041 187.278 167.963 186.295 168.053C187.133 168.574 188.054 168.945 189.019 169.151C189.888 169.369 190.785 169.454 191.679 169.401L194.117 183.552C191.893 185.061 189.688 186.579 187.51 188.141L184.081 190.588L180.679 193.079C178.412 194.739 176.135 196.382 173.903 198.096C171.671 199.802 169.412 201.462 167.198 203.203L167.189 203.212C167.14 203.258 167.105 203.317 167.091 203.382C165.377 202.891 163.644 202.436 161.921 201.962L156.413 200.552C152.734 199.623 149.047 198.766 145.368 197.873C141.663 197.043 137.975 196.177 134.27 195.391C130.565 194.597 126.86 193.82 123.128 193.141C126.77 194.177 130.449 195.123 134.118 196.052C137.788 196.989 141.484 197.838 145.163 198.739C148.859 199.561 152.546 200.427 156.252 201.221L161.814 202.391C163.573 202.73 165.323 203.087 167.082 203.409C167.082 203.418 167.064 203.427 167.064 203.436C166.742 207.034 166.439 210.632 166.225 214.239C166.787 210.721 167.26 207.194 167.715 203.659C169.975 202.061 172.18 200.4 174.412 198.775C176.689 197.132 178.921 195.418 181.162 193.731L184.527 191.186L187.849 188.597C189.965 186.963 192.054 185.284 194.125 183.588L194.84 187.749C194.858 187.849 194.915 187.938 194.999 187.997C195.082 188.056 195.186 188.079 195.286 188.061C195.308 188.059 195.329 188.053 195.349 188.043L205.027 184.677C205.124 184.64 205.205 184.569 205.255 184.477C205.304 184.386 205.318 184.279 205.295 184.177L203.402 176.731C205.056 175.827 206.643 174.806 208.152 173.678C209.339 174.535 210.509 175.401 211.705 176.249C213.009 177.151 214.295 178.079 215.616 178.972C214.402 177.945 213.17 176.945 211.938 175.936C210.794 174.999 209.634 174.088 208.473 173.169C208.465 173.103 208.443 173.039 208.411 172.981C209.098 170.338 209.705 167.678 210.339 165.017C211.009 162.267 211.625 159.499 212.223 156.732C212.848 153.964 213.446 151.196 214 148.411C214.58 145.634 215.116 142.857 215.616 140.063C214.848 142.795 214.116 145.536 213.438 148.286C212.723 151.027 212.063 153.785 211.42 156.544C210.759 159.303 210.116 162.062 209.527 164.83C208.946 167.455 208.357 170.08 207.822 172.713C206.866 172.49 205.911 172.285 204.947 172.115C204.018 171.954 203.089 171.829 202.143 171.749L201.098 167.651L196.849 151.125L196.84 151.098V151.089C196.306 149.645 195.885 148.161 195.581 146.652C195.232 145.183 195.241 143.652 195.608 142.188C195.832 141.492 196.239 140.869 196.786 140.384C197.074 140.143 197.378 139.922 197.697 139.723L198.197 139.393L198.456 139.179C198.491 139.17 198.518 139.143 198.617 139.107C200.115 138.766 201.637 138.542 203.17 138.438C209.384 137.875 215.625 137.545 221.857 137.206C218.741 137.25 215.616 137.339 212.491 137.456C209.366 137.572 206.25 137.697 203.125 137.938C202.348 138 201.563 138.072 200.786 138.161C199.983 138.223 199.188 138.361 198.411 138.572C198.282 138.613 198.161 138.676 198.054 138.759L197.858 138.92L197.375 139.223C197.028 139.43 196.697 139.663 196.385 139.92C195.744 140.467 195.263 141.176 194.992 141.973C194.564 143.541 194.518 145.188 194.858 146.777C195.147 148.327 195.565 149.85 196.108 151.33L200.268 167.856L204.393 184.017L195.518 187.159L192.117 168.919C190.965 162.83 189.789 156.744 188.59 150.661C188.788 144.8 188.375 138.936 187.358 133.161L203.705 131.447C205.353 131.296 206.912 130.638 208.17 129.563C209.508 129.367 210.834 129.099 212.143 128.759C212.482 128.679 212.821 128.59 213.161 128.483C213.33 128.429 213.5 128.375 213.678 128.313C213.698 128.304 213.719 128.298 213.741 128.295H213.768C213.828 128.302 213.888 128.314 213.946 128.331C214.577 128.528 215.186 128.785 215.768 129.099C217 129.697 218.214 130.358 219.446 130.983C220.669 131.634 221.919 132.25 223.187 132.84C221.01 131.084 218.655 129.561 216.161 128.295C215.509 127.965 214.828 127.699 214.125 127.501C214.01 127.478 213.894 127.466 213.777 127.465C213.636 127.473 213.497 127.503 213.366 127.554C213.223 127.626 213.062 127.679 212.91 127.742L211.937 128.099C210.696 128.536 209.455 129 208.223 129.509C209.518 128.277 210.446 126.286 209.902 123.036L209.071 100.992L212.42 100.305C212.42 100.305 214.884 100.858 210.018 86.8053L202.241 64.44C202.241 64.44 232.785 68.2077 233.892 69.3148C234.999 70.4219 227.473 145.027 217.062 180.668C217.062 180.668 169.689 214.542 166.814 215.649C165.412 216.176 139.154 209.882 110.467 202.32C110.468 202.319 113.351 192.855 125.762 190.856ZM225.884 86.0642C226.607 81.6715 227.303 77.2788 227.91 72.8682C226.946 77.2163 226.071 81.5822 225.214 85.9481C224.356 90.3141 223.571 94.6979 222.75 99.0727C222 103.457 221.205 107.84 220.491 112.233L219.428 118.822C219.107 121.027 218.759 123.224 218.464 125.429C218.955 123.259 219.393 121.081 219.866 118.902L221.169 112.349C222.026 107.983 222.803 103.599 223.625 99.2245C224.375 94.8407 225.169 90.4658 225.884 86.0642ZM143.341 34.3337C144.966 34.3337 147.038 35.2176 149.1 35.664C151.163 36.1104 155.885 35.2176 156.332 33.8962C156.778 32.5659 159.564 21.602 160.02 22.1198C160.466 22.6376 161.35 23.5573 161.35 23.5573C161.35 23.5573 161.501 36.914 161.207 38.3514C160.903 39.7978 155.448 47.0297 147.333 46.2887C139.216 45.5476 138.029 35.9587 138.029 35.9587C138.029 35.9587 141.725 34.3337 143.341 34.3337ZM142.002 38.2979C142.598 38.665 143.295 38.8338 143.993 38.78C144.671 38.7282 145.328 38.5204 145.913 38.1729C146.481 37.8435 146.967 37.3885 147.333 36.8426C146.273 37.3913 145.124 37.748 143.94 37.8961C143.385 37.9377 142.828 37.8616 142.306 37.6729C141.739 37.4533 141.198 37.175 140.689 36.8426C140.974 37.4466 141.431 37.9529 142.002 38.2979Z" fill="#FFFBF5"/>
<path d="M161.351 23.5611C161.351 23.5611 153.972 16.6245 154.562 8.06447C154.562 8.06447 152.643 6.29342 149.544 9.24516C149.544 9.24516 146.888 9.98309 143.788 6.73618C140.689 3.48928 139.065 8.21203 139.065 8.21203C139.065 8.21203 137.442 13.23 136.999 11.9017C136.556 10.5734 135.819 4.22719 142.46 2.16098C147.624 0.622539 153.023 0.0227013 158.399 0.389947C160.17 0.685116 163.86 3.63684 163.86 7.76927C163.86 11.9017 165.631 17.0672 165.483 18.6907C165.336 20.3142 161.351 23.5611 161.351 23.5611ZM149.101 24.9262C148.862 24.918 148.636 24.8172 148.469 24.6451C148.303 24.473 148.21 24.2431 148.21 24.0038C148.21 23.7645 148.303 23.5346 148.469 23.3625C148.636 23.1904 148.862 23.0897 149.101 23.0814C149.34 23.0897 149.567 23.1904 149.733 23.3625C149.9 23.5346 149.992 23.7645 149.992 24.0038C149.992 24.2431 149.9 24.473 149.733 24.6451C149.567 24.8172 149.34 24.918 149.101 24.9262ZM139.656 24.3359C139.417 24.3276 139.19 24.2268 139.024 24.0547C138.858 23.8827 138.765 23.6527 138.765 23.4135C138.765 23.1742 138.858 22.9443 139.024 22.7722C139.19 22.6001 139.417 22.4993 139.656 22.4911C139.895 22.4993 140.122 22.6001 140.288 22.7722C140.454 22.9443 140.547 23.1742 140.547 23.4135C140.547 23.6527 140.454 23.8827 140.288 24.0547C140.122 24.2268 139.895 24.3276 139.656 24.3359Z" fill="#FFFBF5"/>
<path d="M137.306 20.7337L141.188 20.2186C141.188 19.7916 140.439 19.7733 139.231 19.9076C138.022 20.0418 137.619 20.2493 137.306 20.7337Z" fill="#FFFBF5"/>
<path d="M165.484 18.6914C165.806 18.8254 166.095 19.0303 166.328 19.2908C166.56 19.5513 166.732 19.8608 166.829 20.1965C167.015 20.8596 167.014 21.5614 166.825 22.2239C166.396 23.5791 165.889 24.9087 165.308 26.2063C164.789 27.5629 164.38 28.959 164.084 30.3811C163.964 31.0486 163.634 31.6604 163.141 32.1267C162.878 32.3556 162.569 32.5262 162.235 32.627C161.901 32.7279 161.55 32.7569 161.204 32.7121C161.562 32.8167 161.939 32.8395 162.307 32.7787C162.676 32.718 163.025 32.5753 163.331 32.3612C163.933 31.8806 164.361 31.2155 164.549 30.4683C164.909 29.0933 165.355 27.7421 165.883 26.4225C166.129 25.7518 166.38 25.0823 166.648 24.4187C166.943 23.7439 167.157 23.0369 167.288 22.3121C167.437 21.5699 167.375 20.8008 167.11 20.0919C166.968 19.7467 166.747 19.4399 166.465 19.1965C166.182 18.9531 165.846 18.78 165.484 18.6914ZM141.427 28.7272C141.075 29.661 141.086 30.6929 141.457 31.619C141.662 32.1147 142.043 32.5172 142.527 32.7491C143.002 32.9392 143.531 32.9438 144.01 32.7619C143.566 32.7051 143.139 32.5571 142.755 32.3271C142.427 32.0816 142.173 31.7508 142.02 31.3708C141.712 30.518 141.513 29.6298 141.427 28.7272ZM136.999 11.9023C137.125 13.9289 137.129 15.9612 137.012 17.9882C136.95 18.9934 136.835 19.9946 136.665 20.9872C136.485 21.9611 136.202 22.9588 136.031 23.9761C135.684 26.0193 135.706 28.1081 136.097 30.1433C136.521 32.1485 137.171 34.0994 138.033 35.959C137.397 34.0328 136.906 32.0621 136.563 30.0632C136.253 28.0777 136.278 26.0544 136.637 24.0772C136.785 23.0829 137.043 22.1128 137.215 21.0815C137.383 20.0655 137.472 19.0381 137.482 18.0083C137.521 15.9621 137.359 13.917 136.999 11.9023ZM161.204 38.3532C161.326 39.534 161.766 40.6596 162.477 41.6102C162.839 42.0931 163.284 42.5088 163.79 42.8382C164.302 43.1551 164.89 43.3279 165.492 43.3383C164.981 43.1068 164.503 42.808 164.071 42.4499C163.665 42.0839 163.295 41.6788 162.968 41.2405C162.635 40.7949 162.328 40.3303 162.048 39.8488C161.768 39.3615 161.479 38.8693 161.204 38.3532Z" fill="#FFFBF5"/>
<path d="M161.777 39.9297C166.262 40.8407 170.651 42.1734 174.885 43.9102C177.081 44.7072 179.376 45.1951 181.705 45.3599C183.969 45.492 186.223 45.751 188.458 46.1358C188.962 46.2457 189.446 46.434 189.892 46.6937C190.404 47.0111 190.944 47.2813 191.505 47.5009C192.526 47.8799 193.466 48.4476 194.277 49.1743C195.825 50.7848 197.098 52.6391 198.044 54.6628C198.58 55.661 199.008 56.7189 199.48 57.7552C199.906 58.8123 200.334 59.871 200.734 60.9411C201.111 62.0201 201.511 63.092 201.87 64.1785L202.895 67.4567L202.897 67.4646L202.901 67.4771C205.036 72.8178 206.976 78.2327 208.721 83.7218C209.585 86.4637 210.402 89.2215 211.099 92.0011C211.443 93.391 211.767 94.7856 212.01 96.182C212.134 96.8713 212.218 97.5669 212.264 98.2657C212.284 98.5967 212.279 98.9287 212.249 99.2589C212.241 99.4901 212.172 99.7151 212.047 99.91L212.301 99.7801C207.23 100.777 202.155 101.771 197.073 102.709L189.457 104.13L185.645 104.773C184.408 104.988 183.161 105.141 181.908 105.231L181.538 105.235C181.537 105.215 181.547 105.237 181.525 105.223C181.499 105.198 181.471 105.175 181.441 105.157C181.271 104.96 181.13 104.741 181.021 104.506C180.761 103.952 180.547 103.379 180.379 102.791C180.036 101.566 179.762 100.324 179.558 99.0693C179.128 96.5451 178.898 93.9803 178.721 91.4139C178.559 88.8453 178.507 86.2705 178.563 83.6894C178.601 81.111 178.754 78.5317 179.043 75.963C179.044 75.9472 179.04 75.9315 179.03 75.919C179.02 75.9066 179.006 75.8984 178.99 75.8962C178.975 75.8939 178.959 75.8978 178.946 75.907C178.933 75.9162 178.924 75.9301 178.921 75.9456C178.489 78.4986 178.19 81.0772 178.008 83.6659C177.849 86.2559 177.802 88.8513 177.867 91.4522C177.931 94.0564 178.144 96.6547 178.507 99.2343C178.688 100.537 178.942 101.829 179.267 103.104C179.439 103.764 179.664 104.408 179.941 105.031C180.098 105.386 180.307 105.716 180.562 106.009C180.653 106.093 180.752 106.175 180.851 106.251C180.984 106.332 181.128 106.395 181.277 106.438C181.487 106.459 181.675 106.458 181.875 106.464C183.203 106.386 184.525 106.235 185.836 106.012L189.677 105.383C192.228 104.932 194.778 104.48 197.317 103.979C202.393 102.966 207.461 101.917 212.52 100.832L212.562 100.823C212.643 100.806 212.717 100.763 212.774 100.702C213.099 100.331 213.283 99.8569 213.293 99.3634C213.321 98.9761 213.319 98.5872 213.287 98.2002C213.222 97.4637 213.116 96.7314 212.969 96.0068C212.688 94.5725 212.325 93.1692 211.922 91.7798C211.12 89.0009 210.203 86.2662 209.259 83.5432C208.298 80.8258 207.331 78.1128 206.336 75.4101L203.323 67.3116L203.33 67.3318C202.18 62.8672 200.687 58.4983 198.862 54.2644C197.946 52.0867 196.635 50.097 194.996 48.3957C194.103 47.5767 193.066 46.9305 191.938 46.49C191.433 46.2865 190.943 46.046 190.473 45.7705C189.925 45.4546 189.33 45.2282 188.711 45.0997C186.421 44.7322 184.112 44.4973 181.796 44.3963C180.662 44.2967 179.534 44.1759 178.426 43.9727C177.315 43.8017 176.222 43.5309 175.161 43.1635C170.85 41.5346 166.365 40.4087 161.796 39.8082C161.78 39.8059 161.764 39.8102 161.751 39.8199C161.738 39.8297 161.729 39.8443 161.727 39.8604C161.725 39.8761 161.729 39.8919 161.738 39.9047C161.748 39.9175 161.761 39.9264 161.777 39.9297Z" fill="#FFFBF5"/>
<path d="M147.303 52.7242C147.403 53.2613 147.429 53.8098 147.378 54.3539C147.346 54.9046 147.31 55.4545 147.258 56.0042L146.921 59.2987C146.679 61.4938 146.39 63.6842 146.122 65.8768L145.695 69.1628C145.425 70.3184 145.602 71.5331 146.189 72.5641C146.383 72.8091 146.622 73.0136 146.895 73.1659C147.167 73.3181 147.467 73.415 147.777 73.4512C148.087 73.4873 148.401 73.4619 148.701 73.3764C149.001 73.291 149.282 73.1471 149.526 72.9531C149.771 72.7614 149.974 72.5216 150.123 72.2485C150.271 71.9753 150.363 71.6746 150.39 71.3648L150.569 69.718C150.816 67.5234 151.078 65.3297 151.413 63.1482C151.573 62.0587 151.79 60.9784 152.064 59.9119C152.131 59.6521 152.224 59.3995 152.34 59.1577C152.363 59.104 152.399 59.0564 152.443 59.0185C152.488 58.9807 152.541 58.9538 152.597 58.9398L152.977 58.7757C153.483 58.5571 153.996 58.3517 154.511 58.1524C156.569 57.3506 158.642 56.5839 160.734 55.8811C161.771 55.5528 162.848 55.0838 163.845 55.4123C164.308 55.6349 164.693 55.9929 164.948 56.4391C165.203 56.8852 165.317 57.3983 165.274 57.9105C165.275 57.9685 165.299 58.0237 165.341 58.064C165.382 58.1044 165.438 58.1265 165.496 58.1256C165.534 58.1247 165.571 58.1141 165.604 58.0948C165.637 58.0754 165.664 58.048 165.683 58.0151C166.262 57.0073 166.914 56.0429 167.633 55.1293C168.329 54.213 169.143 53.3927 170.053 52.69C170.499 52.3549 170.996 52.0955 171.526 51.9224C172.108 51.7386 172.667 51.4906 173.194 51.1828C174.268 50.5689 175.176 49.7018 175.838 48.6569C175.847 48.6425 175.854 48.627 175.859 48.6107L175.865 48.5916C176.03 47.9771 175.95 47.3223 175.641 46.766C175.356 46.2524 174.983 45.7931 174.538 45.4094C173.684 44.6792 172.743 44.0574 171.737 43.5584C169.764 42.5577 167.698 41.7515 165.569 41.1511C165.514 41.1355 165.457 41.1366 165.403 41.1543C165.35 41.1721 165.303 41.2056 165.269 41.2505C165.235 41.2954 165.216 41.3495 165.213 41.4057C165.21 41.462 165.225 41.5177 165.254 41.5655L165.263 41.5786C165.604 42.1538 165.824 42.7921 165.912 43.455C165.962 43.7924 165.989 44.1328 165.994 44.4739C165.964 44.8146 165.967 45.16 165.906 45.4986C165.676 46.8734 165.162 48.1849 164.395 49.349C164.021 49.9417 163.615 50.5142 163.18 51.0643C162.705 51.5821 162.259 52.1289 161.764 52.6297C161.251 53.1136 160.765 53.6284 160.229 54.0895L158.601 55.4521C158.598 55.4545 158.595 55.4575 158.593 55.461C158.591 55.4644 158.59 55.4683 158.589 55.4723C158.589 55.4763 158.589 55.4803 158.59 55.4843C158.591 55.4882 158.592 55.4919 158.595 55.4951C158.6 55.5014 158.607 55.5055 158.615 55.5067C158.623 55.5079 158.631 55.506 158.638 55.5014L160.329 54.2069C160.887 53.7673 161.398 53.2714 161.937 52.805C162.463 52.3258 162.924 51.7774 163.419 51.2633C163.876 50.7125 164.303 50.1379 164.699 49.5418C165.523 48.3484 166.089 46.9958 166.359 45.571C166.431 45.2142 166.439 44.8456 166.477 44.4823C166.481 44.115 166.461 43.7478 166.415 43.3832C166.334 42.6347 166.097 41.9114 165.72 41.2598L165.414 41.6872C167.488 42.3284 169.505 43.1414 171.444 44.1178C172.401 44.5958 173.294 45.1899 174.105 45.8867C174.509 46.1634 174.828 46.5454 175.029 46.9912C175.23 47.437 175.305 47.9294 175.246 48.4148L175.273 48.3498C174.673 49.2996 173.854 50.0917 172.885 50.6599C172.4 50.9503 171.883 51.1856 171.346 51.3616C170.758 51.5598 170.208 51.853 169.716 52.2293C168.767 52.9685 167.929 53.8394 167.227 54.8156C166.513 55.7652 165.869 56.7655 165.3 57.8086L165.709 57.9133C165.693 57.3252 165.547 56.7479 165.281 56.2232C165.15 55.9515 164.965 55.7092 164.738 55.5109C164.51 55.3126 164.245 55.1624 163.958 55.0694C162.764 54.7244 161.657 55.2655 160.635 55.5957C158.548 56.3335 156.485 57.1334 154.437 57.9685L152.902 58.597L152.518 58.7577C152.442 58.7813 152.371 58.82 152.31 58.8715C152.249 58.923 152.199 58.9862 152.163 59.0574C152.035 59.3117 151.934 59.5781 151.859 59.8527C151.552 60.9256 151.361 62.0164 151.155 63.1044C150.755 65.2821 150.427 67.4707 150.118 69.6614L149.893 71.3053C149.869 71.5475 149.796 71.7823 149.678 71.9952C149.56 72.2081 149.4 72.3945 149.207 72.5431C148.825 72.8429 148.339 72.9791 147.857 72.9221C147.374 72.865 146.934 72.6193 146.632 72.2387C146.365 71.8078 146.202 71.3205 146.156 70.8155C146.101 70.2866 146.119 69.7527 146.212 69.2291L146.602 65.9347C146.863 63.7384 147.07 61.5358 147.257 59.3312C147.352 58.229 147.429 57.1249 147.472 56.0181C147.499 55.4654 147.509 54.911 147.517 54.3573C147.544 53.7983 147.49 53.2384 147.356 52.6948C147.354 52.6873 147.349 52.6811 147.342 52.6775C147.335 52.6739 147.327 52.6732 147.319 52.6755C147.311 52.6779 147.305 52.6831 147.301 52.69C147.298 52.697 147.297 52.7051 147.299 52.7127L147.303 52.7242Z" fill="#FFFBF5"/>
<path d="M144.536 45.6011C144.104 46.2132 143.722 46.8597 143.395 47.5342C143.231 47.8734 143.113 48.2347 142.97 48.5865C142.852 48.9512 142.766 49.3251 142.711 49.7043C142.574 50.4816 142.639 51.2808 142.897 52.0264C143.188 52.7901 143.74 53.4258 144.455 53.8202C144.483 53.8352 144.514 53.8445 144.545 53.8477C144.577 53.8509 144.609 53.8478 144.639 53.8387C144.669 53.8296 144.697 53.8146 144.722 53.7946C144.746 53.7746 144.767 53.7499 144.782 53.7221C144.796 53.6951 144.806 53.6656 144.809 53.6351L144.81 53.6267C144.909 52.5553 145.137 51.4998 145.489 50.483C145.666 49.9809 145.943 49.5207 146.306 49.1309C146.482 48.9544 146.71 48.8377 146.957 48.7973C147.077 48.8124 147.194 48.8514 147.299 48.9122C147.404 48.973 147.497 49.0543 147.57 49.1512C148.182 50.033 148.624 51.0206 148.874 52.0639C149.186 53.0974 149.447 54.1544 149.674 55.2051L149.67 55.1046L149.391 57.0217C149.379 57.1041 149.4 57.1879 149.449 57.2555C149.497 57.323 149.57 57.369 149.652 57.3837C149.734 57.3984 149.819 57.3806 149.888 57.3342C149.957 57.2878 150.005 57.2163 150.023 57.1349L150.024 57.1277C150.194 56.2256 150.292 55.3114 150.318 54.3938C150.367 53.4839 150.344 52.576 150.302 51.6712C150.226 49.8636 150.038 48.0625 149.74 46.2779C149.739 46.2698 149.734 46.2626 149.728 46.2578C149.721 46.2531 149.713 46.2511 149.705 46.2524C149.697 46.2538 149.691 46.2578 149.686 46.2636C149.681 46.2695 149.679 46.2768 149.679 46.2843C149.738 48.0877 149.767 49.8866 149.767 51.6813C149.791 53.4611 149.667 55.2397 149.395 56.9988L150.028 57.1048L150.251 55.1806L150.252 55.1707C150.256 55.1403 150.254 55.1096 150.247 55.0798C149.991 54.0096 149.672 52.9555 149.291 51.9231C148.942 50.8668 148.415 49.878 147.732 48.9995C147.637 48.8824 147.518 48.7861 147.384 48.7165C147.25 48.647 147.103 48.6056 146.953 48.5949C146.659 48.6425 146.388 48.7822 146.178 48.9939C145.781 49.3913 145.471 49.8666 145.267 50.39C144.826 51.4066 144.507 52.4718 144.315 53.5633L144.669 53.3698C144.093 53.0062 143.65 52.4662 143.406 51.8302C143.157 51.1715 143.08 50.4601 143.182 49.7633C143.201 49.4072 143.312 49.0585 143.366 48.7013C143.478 48.3563 143.563 48.0005 143.697 47.6596C143.844 47.3245 143.958 46.9728 144.113 46.6382L144.589 45.6331C144.591 45.6295 144.592 45.6256 144.592 45.6216C144.593 45.6175 144.592 45.6135 144.591 45.6096C144.59 45.6057 144.588 45.6021 144.585 45.599C144.583 45.5958 144.58 45.5932 144.576 45.5913C144.569 45.5881 144.562 45.5873 144.554 45.589C144.547 45.5908 144.541 45.5951 144.536 45.6011ZM148.99 60.2734C148.751 60.2651 148.524 60.1643 148.358 59.9922C148.192 59.8201 148.099 59.5902 148.099 59.3509C148.099 59.1117 148.192 58.8818 148.358 58.7097C148.524 58.5376 148.751 58.4368 148.99 58.4285C149.229 58.4368 149.456 58.5376 149.622 58.7097C149.788 58.8818 149.881 59.1117 149.881 59.3509C149.881 59.5902 149.788 59.8201 149.622 59.9922C149.456 60.1643 149.229 60.2651 148.99 60.2734ZM148.326 65.3651C148.087 65.3568 147.86 65.256 147.694 65.0839C147.528 64.9118 147.435 64.6819 147.435 64.4427C147.435 64.2034 147.528 63.9735 147.694 63.8014C147.86 63.6293 148.087 63.5285 148.326 63.5203C148.565 63.5285 148.792 63.6293 148.958 63.8014C149.124 63.9735 149.217 64.2034 149.217 64.4427C149.217 64.6819 149.124 64.9118 148.958 65.0839C148.792 65.256 148.565 65.3568 148.326 65.3651ZM147.772 70.2354C147.533 70.2272 147.307 70.1264 147.141 69.9543C146.974 69.7822 146.881 69.5523 146.881 69.313C146.881 69.0738 146.974 68.8438 147.141 68.6717C147.307 68.4997 147.533 68.3989 147.772 68.3906C148.012 68.3989 148.238 68.4997 148.404 68.6717C148.571 68.8438 148.664 69.0738 148.664 69.313C148.664 69.5523 148.571 69.7822 148.404 69.9543C148.238 70.1264 148.012 70.2272 147.772 70.2354ZM141.89 43.8706C138.203 43.9624 134.52 44.207 130.847 44.5847C129.009 44.7627 127.179 45.0203 125.354 45.3309C123.497 45.5897 121.68 46.0841 119.948 46.8022C119.721 46.9147 119.509 47.0539 119.314 47.2166C119.136 47.3784 118.966 47.5506 118.808 47.7322C118.503 48.062 118.171 48.3774 117.841 48.7025C117.159 49.3493 116.543 50.0628 116.004 50.8323C114.971 52.398 114.205 54.1234 113.735 55.9389C112.808 59.5207 112.234 63.1844 112.02 66.8778C112.467 63.2269 113.191 59.6153 114.188 56.0746C114.691 54.3279 115.458 52.6683 116.462 51.1529C116.989 50.4181 117.589 49.7381 118.251 49.1232C118.581 48.8047 118.921 48.4884 119.245 48.1452C119.514 47.8113 119.851 47.5389 120.233 47.3462C121.905 46.6417 123.658 46.1494 125.452 45.8807C127.256 45.5459 129.08 45.3029 130.902 45.0523C134.552 44.5783 138.219 44.2154 141.89 43.8706ZM192.491 51.6722C190.792 51.3125 189.021 51.5171 187.448 52.255C185.872 53.012 184.525 54.1752 183.547 55.6252C183.058 56.3382 182.632 57.0924 182.274 57.8793C181.935 58.6678 181.638 59.4738 181.385 60.294C181.2 61.1303 180.972 61.9547 180.826 62.7933C180.729 63.6418 180.613 64.4841 180.537 65.3282C180.751 64.5031 180.926 63.6764 181.12 62.8558C181.325 62.0383 181.601 61.2412 181.836 60.4369C182.151 59.6613 182.429 58.8699 182.781 58.1161C183.142 57.3688 183.566 56.6536 184.049 55.9785C184.955 54.5929 186.195 53.4579 187.655 52.6781C189.141 51.8974 190.817 51.5489 192.491 51.6722ZM170.648 90.5655C170.224 91.6943 169.778 92.8107 169.258 93.8951C168.767 94.9908 168.228 96.0634 167.656 97.117C166.525 99.2269 165.233 101.246 163.79 103.156C162.368 105.078 160.75 106.847 158.963 108.435L157.599 109.599C157.131 109.972 156.626 110.295 156.143 110.648L155.415 111.178C155.162 111.339 154.899 111.482 154.641 111.636L153.086 112.556C155.317 111.605 157.4 110.338 159.271 108.794C161.135 107.235 162.816 105.467 164.28 103.526C165.724 101.577 166.994 99.5046 168.075 97.3329C169.158 95.1693 170.02 92.902 170.648 90.5655ZM209.07 100.992C209.097 104.67 209.178 108.346 209.238 112.023C209.288 115.7 209.412 119.374 209.496 123.05L209.499 123.081L209.504 123.115C209.729 124.584 209.541 126.086 208.962 127.455C208.348 128.778 207.246 129.811 205.886 130.339C205.537 130.452 205.195 130.583 204.842 130.686L203.746 130.898C202.988 131.01 202.205 131.092 201.431 131.177C199.879 131.341 198.324 131.488 196.765 131.617C190.535 132.141 184.284 132.41 178.036 132.549C171.791 132.693 165.543 132.487 159.321 131.931C153.139 131.334 146.859 130.387 141.242 127.696C141.187 127.67 141.125 127.665 141.066 127.682C141.008 127.699 140.958 127.737 140.925 127.788C140.483 128.478 139.87 129.042 139.145 129.425C138.406 129.815 137.59 130.036 136.755 130.074C135.908 130.106 135.062 130.017 134.24 129.809C133.833 129.689 133.424 129.564 133.019 129.43L131.833 128.938L132.992 129.496C133.391 129.653 133.796 129.802 134.202 129.946C135.031 130.205 135.895 130.336 136.764 130.335C137.656 130.346 138.538 130.142 139.334 129.739C140.131 129.337 140.817 128.747 141.337 128.021L141.02 128.113C143.827 129.576 146.814 130.662 149.905 131.344C152.976 132.049 156.086 132.578 159.217 132.927C165.474 133.566 171.764 133.835 178.052 133.732C184.337 133.692 190.609 133.293 196.864 132.735C198.428 132.593 199.99 132.432 201.552 132.253C202.334 132.16 203.11 132.073 203.9 131.95L205.109 131.705C205.506 131.587 205.897 131.436 206.29 131.301C207.875 130.651 209.142 129.406 209.821 127.833C210.439 126.285 210.608 124.594 210.309 122.954L210.317 123.019C210.122 119.347 209.968 115.674 209.739 112.004C209.52 108.333 209.322 104.662 209.07 100.992Z" fill="#FFFBF5"/>
<path d="M186.289 105.31C186.187 107.332 186.129 109.353 186.059 111.375L186.198 111.164C179.085 113.714 171.618 115.138 164.067 115.386C160.313 115.5 156.557 115.206 152.867 114.509L150.119 113.914C149.211 113.684 148.331 113.358 147.435 113.085L146.091 112.665C145.654 112.499 145.229 112.3 144.796 112.12L142.206 111.01L142.426 111.342C142.324 110.728 142.083 110.146 141.721 109.64C141.385 109.149 140.966 108.72 140.483 108.373C139.54 107.704 138.455 107.261 137.313 107.078C136.758 106.981 136.199 106.913 135.637 106.875C135.077 106.875 134.517 106.826 133.961 106.868C133.405 106.913 132.847 106.913 132.297 106.998L130.651 107.242L132.309 107.15C132.86 107.122 133.412 107.147 133.961 107.143C134.512 107.14 135.057 107.226 135.601 107.262C136.14 107.336 136.675 107.439 137.203 107.568C138.24 107.815 139.214 108.274 140.065 108.915C140.874 109.522 141.424 110.412 141.605 111.407L141.609 111.435C141.618 111.499 141.642 111.56 141.68 111.614C141.717 111.667 141.767 111.71 141.825 111.74C145.227 113.547 148.867 114.866 152.637 115.657C156.408 116.421 160.257 116.734 164.102 116.589C167.933 116.449 171.744 115.953 175.483 115.109C177.346 114.673 179.194 114.18 181.013 113.596C182.842 113.039 184.635 112.367 186.381 111.586L186.391 111.581C186.431 111.563 186.464 111.534 186.487 111.497C186.509 111.461 186.521 111.418 186.519 111.375C186.449 109.353 186.391 107.332 186.289 105.31Z" fill="#FFFBF5"/>
<path d="M204.148 116.032C203.185 114.705 201.955 113.591 200.539 112.764C199.121 111.924 197.586 111.3 195.985 110.912C195.179 110.749 194.364 110.635 193.545 110.572C192.729 110.492 191.908 110.479 191.09 110.532C190.272 110.55 189.466 110.715 188.658 110.802C187.861 110.974 187.07 111.167 186.288 111.375C187.1 111.304 187.895 111.17 188.697 111.101C189.502 111.076 190.3 110.965 191.102 111.005C192.698 110.997 194.289 111.167 195.848 111.511C197.401 111.864 198.899 112.423 200.305 113.172C201.73 113.915 203.028 114.88 204.148 116.032ZM142.015 111.375C141.769 111.911 141.479 112.424 141.147 112.911C140.834 113.386 140.43 113.796 139.96 114.118C139.843 114.187 139.721 114.246 139.595 114.295C139.423 114.359 139.268 114.461 139.141 114.593C139.027 114.741 138.952 114.914 138.922 115.098C138.893 115.282 138.909 115.471 138.97 115.647C139.172 116.248 139.498 116.799 139.929 117.264L139.933 117.268L139.95 117.285C140.409 117.718 140.755 118.257 140.958 118.855C141.051 119.137 141.08 119.436 141.043 119.731C141.006 120.026 140.903 120.308 140.743 120.558C140.445 121.043 139.79 121.516 139.539 122.26C139.461 122.452 139.427 122.659 139.437 122.866C139.448 123.073 139.504 123.275 139.6 123.459C139.811 123.798 140.128 124.057 140.502 124.197L140.42 124.141C140.904 124.652 141.274 125.26 141.506 125.925C141.619 126.257 141.653 126.61 141.607 126.958C141.529 127.309 141.365 127.634 141.129 127.905C141.418 127.665 141.633 127.348 141.751 126.992C141.844 126.62 141.85 126.232 141.769 125.857C141.69 125.485 141.556 125.128 141.37 124.796C141.192 124.46 140.982 124.142 140.743 123.847C140.728 123.83 140.71 123.815 140.69 123.805L140.66 123.79C140.4 123.669 140.185 123.469 140.047 123.218C139.992 123.097 139.963 122.965 139.963 122.832C139.962 122.698 139.99 122.566 140.045 122.445C140.245 121.87 140.785 121.513 141.235 120.874C141.452 120.555 141.594 120.191 141.649 119.809C141.693 119.426 141.652 119.039 141.529 118.674C141.281 117.981 140.864 117.361 140.315 116.871L140.336 116.891C139.956 116.49 139.655 116.02 139.449 115.507C139.402 115.407 139.379 115.297 139.384 115.187C139.389 115.076 139.421 114.968 139.478 114.873C139.553 114.788 139.645 114.72 139.749 114.673C139.894 114.605 140.033 114.526 140.165 114.434C140.659 114.062 141.059 113.581 141.337 113.028C141.623 112.504 141.851 111.95 142.015 111.375ZM131.019 111.996C131.038 112.371 131.056 112.741 131.075 113.109C131.819 113.103 132.569 113.073 133.313 112.993C134.189 112.922 135.057 112.775 135.908 112.556C135.057 112.336 134.189 112.19 133.313 112.119C132.551 112.04 131.782 112.009 131.019 111.996ZM131.216 116.135C131.241 116.51 131.253 116.879 131.272 117.242C131.954 117.23 132.631 117.199 133.313 117.125C134.189 117.054 135.057 116.908 135.908 116.688C135.057 116.469 134.189 116.323 133.313 116.252C132.612 116.178 131.917 116.147 131.216 116.135ZM131.401 120.12C131.413 120.495 131.431 120.864 131.444 121.227C132.065 121.208 132.692 121.178 133.313 121.11C134.189 121.039 135.057 120.893 135.908 120.673C135.057 120.454 134.189 120.308 133.313 120.237C132.674 120.169 132.034 120.138 131.401 120.12ZM133.313 124.996C132.735 124.935 132.157 124.904 131.585 124.886C131.603 125.261 131.616 125.624 131.628 125.974C132.188 125.962 132.754 125.931 133.313 125.869C134.189 125.799 135.057 125.652 135.908 125.433C135.057 125.213 134.189 125.067 133.313 124.996ZM152.268 134.149C152.268 134.149 163.347 123.199 167.484 130.3C171.62 137.401 168.777 142.61 165.703 146.125C161.959 150.407 161.771 151.69 160.66 152.958C159.549 154.226 147.009 169.558 131.379 168.696C122.261 168.194 122.416 163.335 124.129 159.373C125.373 156.567 127.373 154.162 129.905 152.427C134.898 148.937 146.056 140.856 152.268 134.149Z" fill="#FFFBF5"/>
<path d="M156.047 131.021C153.664 131.133 151.288 131.293 148.912 131.448L141.787 131.932C139.415 132.12 137.039 132.257 134.665 132.384C133.478 132.457 132.29 132.5 131.103 132.519C130.511 132.519 129.913 132.561 129.323 132.518L128.433 132.476L127.553 132.337C129.897 132.813 132.292 132.988 134.681 132.856C137.068 132.828 139.449 132.685 141.829 132.545C144.206 132.358 146.582 132.172 148.952 131.917C151.322 131.664 153.69 131.385 156.047 131.021ZM132.336 151.013C132.404 151.013 132.469 150.991 132.523 150.95C132.576 150.909 132.615 150.852 132.633 150.787C132.651 150.722 132.647 150.652 132.621 150.59C132.596 150.527 132.551 150.475 132.493 150.44C132.012 150.157 120.657 143.49 116.407 144.876C116.33 144.902 116.266 144.957 116.23 145.029C116.193 145.102 116.187 145.186 116.213 145.263C116.238 145.341 116.293 145.405 116.365 145.442C116.438 145.478 116.522 145.485 116.599 145.46C120.583 144.155 132.065 150.902 132.18 150.971C132.227 150.998 132.281 151.013 132.336 151.013Z" fill="#FFFBF5"/>
<path d="M64.4479 105.804L64.4418 105.804L64.4198 105.808L37.6345 115.735L37.611 115.745C34.9481 116.989 32.4147 118.494 30.0478 120.237C27.6568 121.982 25.5507 124.087 23.8045 126.477C22.9058 127.683 22.1997 129.02 21.7117 130.442C21.2409 131.843 20.8725 133.277 20.6092 134.731C20.012 137.687 20.2182 140.749 21.2065 143.599C21.7606 145.017 22.5749 146.319 23.6073 147.438C24.6474 148.54 25.8621 149.462 27.2026 150.169C28.5337 150.872 29.9529 151.393 31.4224 151.719C32.1533 151.873 32.8929 151.983 33.637 152.048L35.8107 152.285C41.6069 152.905 47.4013 153.535 53.2027 154.099C64.8049 155.235 76.4102 156.347 88.0409 157.203C90.9483 157.42 93.8572 157.623 96.7698 157.789C99.6884 157.935 102.584 158.139 105.551 158.008C107.075 157.883 108.523 157.294 109.701 156.32C110.858 155.386 111.876 154.291 112.723 153.069C114.396 150.648 115.743 148.017 116.728 145.244C116.742 145.208 116.746 145.168 116.74 145.13C116.734 145.091 116.719 145.055 116.695 145.024C116.671 144.993 116.64 144.968 116.605 144.952C116.569 144.937 116.53 144.93 116.491 144.933L116.484 144.934C115.238 145.094 113.977 145.09 112.733 144.922C112.148 144.81 111.528 144.575 111.358 144.079C111.254 143.504 111.367 142.911 111.677 142.415C112.288 141.311 113.004 140.268 113.814 139.3C114.605 138.304 115.425 137.326 116.239 136.341C117.052 135.357 117.86 134.365 118.643 133.353C119.384 132.335 120.281 131.44 121.299 130.699C121.777 130.319 122.337 130.057 122.935 129.934C123.533 129.812 124.152 129.833 124.74 129.995C125.885 130.457 126.818 131.325 127.362 132.432L127.369 132.444C127.389 132.481 127.419 132.511 127.456 132.531C127.493 132.55 127.535 132.559 127.577 132.555C127.618 132.55 127.658 132.534 127.69 132.508C127.723 132.481 127.747 132.446 127.759 132.406C128.161 131.168 128.371 129.875 128.382 128.573C128.386 127.909 128.281 127.249 128.072 126.619C127.855 125.964 127.444 125.391 126.894 124.976L126.925 125.003C126.421 124.561 125.842 124.213 125.216 123.975C124.621 123.727 124.013 123.51 123.395 123.325C122.167 122.949 120.925 122.645 119.678 122.368C117.183 121.821 114.669 121.383 112.152 120.984C107.115 120.193 102.057 119.568 96.9943 118.999C86.8675 117.864 76.7216 116.962 66.5574 116.214L66.9991 116.634C66.3584 112.586 65.5279 108.679 64.743 104.713L62.3004 92.8684L57.3918 69.1842L57.1646 69.8035C57.7138 69.4985 58.3085 69.284 58.9259 69.1684C59.5975 69.0148 60.2867 68.8879 60.9842 68.7862C62.3771 68.5751 63.7918 68.4312 65.2073 68.3049C68.0412 68.0558 70.8915 67.9088 73.7422 67.7796C79.4457 67.5265 85.1608 67.409 90.8763 67.3416C102.308 67.2091 113.748 67.3094 125.18 67.4678L124.766 67.2862C125.148 67.7639 125.442 68.3047 125.637 68.8841C125.871 69.4999 126.067 70.1437 126.244 70.7955C126.595 72.1014 126.87 73.4406 127.118 74.7848C127.607 77.4766 127.98 80.1991 128.309 82.9265C128.959 88.3841 129.431 93.8688 129.838 99.3575C130.241 104.848 130.579 110.344 130.851 115.845C131.155 121.338 131.357 126.847 131.563 132.346L131.563 132.351C131.566 132.422 131.596 132.489 131.648 132.537C131.699 132.585 131.768 132.611 131.838 132.61L155.276 132.001C155.292 132 155.308 131.993 155.319 131.982C155.33 131.97 155.336 131.954 155.336 131.938C155.336 131.922 155.329 131.906 155.317 131.895C155.306 131.884 155.29 131.878 155.274 131.878L131.829 132.068L132.104 132.332C131.964 126.82 131.805 121.317 131.557 115.807C131.335 110.306 131.049 104.804 130.701 99.298C130.345 93.797 129.925 88.2981 129.324 82.8096C129.02 80.0657 128.672 77.3243 128.202 74.5915C127.963 73.2255 127.697 71.8615 127.346 70.5037C127.169 69.8249 126.97 69.1478 126.722 68.4735C126.482 67.7427 126.107 67.0632 125.618 66.4699C125.569 66.4149 125.509 66.3704 125.443 66.3393C125.376 66.3081 125.304 66.291 125.23 66.2889L125.204 66.2883C119.48 66.1404 113.759 66.0879 108.035 66.0457C102.311 66.0093 96.5873 66.0157 90.8626 66.0646C85.1377 66.1229 79.4119 66.2312 73.6846 66.476C70.8209 66.6043 67.9575 66.7736 65.0931 67.0346C63.6606 67.1685 62.2285 67.3198 60.794 67.5433C60.0766 67.6512 59.3586 67.7855 58.6369 67.9539C57.8466 68.1042 57.0907 68.3988 56.407 68.8228C56.3144 68.8849 56.2424 68.9733 56.2003 69.0766C56.1583 69.18 56.1482 69.2935 56.1712 69.4027L56.1797 69.4424L61.1868 93.0993L63.7023 104.925C64.5197 108.859 65.397 112.835 66.0538 116.743L66.0579 116.768C66.0757 116.874 66.1286 116.97 66.208 117.042C66.2874 117.114 66.3887 117.156 66.4954 117.163C76.6481 117.817 86.7994 118.626 96.9218 119.668C101.981 120.203 107.036 120.795 112.064 121.551C114.577 121.933 117.085 122.354 119.566 122.882C120.806 123.148 122.04 123.443 123.249 123.804C123.852 123.98 124.445 124.188 125.027 124.425C125.594 124.637 126.12 124.944 126.583 125.334L126.592 125.343L126.615 125.362C127.091 125.718 127.446 126.211 127.634 126.775C127.83 127.357 127.929 127.966 127.929 128.579C127.925 129.831 127.73 131.075 127.352 132.269L127.749 132.243C127.149 131.037 126.122 130.098 124.867 129.61C124.22 129.432 123.54 129.41 122.883 129.545C122.226 129.679 121.61 129.967 121.085 130.385C120.041 131.157 119.118 132.079 118.344 133.121C117.561 134.124 116.75 135.108 115.933 136.088C115.116 137.068 114.291 138.042 113.489 139.041C112.655 140.028 111.918 141.094 111.289 142.222C110.917 142.821 110.793 143.541 110.942 144.23C111.079 144.581 111.34 144.869 111.677 145.039C111.982 145.194 112.308 145.304 112.644 145.366C113.932 145.549 115.238 145.562 116.528 145.402L116.283 145.092C115.307 147.816 113.961 150.392 112.282 152.749C111.453 153.916 110.462 154.959 109.338 155.846C108.246 156.733 106.906 157.261 105.502 157.36C102.644 157.451 99.7134 157.217 96.8174 157.035C93.9139 156.835 91.0111 156.598 88.1097 156.348C76.5051 155.319 64.9058 154.207 53.3118 153.012L35.9208 151.247C34.4817 151.072 32.991 151.004 31.6404 150.719C30.2597 150.419 28.9253 149.936 27.6726 149.282C25.1446 148.015 23.1649 145.87 22.1042 143.249C21.1666 140.563 20.9647 137.675 21.5194 134.885C21.7657 133.47 22.1104 132.073 22.5511 130.705C22.9977 129.362 23.65 128.097 24.4845 126.954C26.1578 124.611 28.1837 122.542 30.4902 120.82C32.8002 119.079 35.2765 117.571 37.883 116.317L37.8599 116.326L64.4637 105.923L64.4419 105.927L64.448 105.927C64.4643 105.927 64.4799 105.921 64.4915 105.909C64.503 105.898 64.5095 105.882 64.5095 105.866C64.5095 105.849 64.503 105.834 64.4915 105.822C64.4799 105.811 64.4642 105.804 64.4479 105.804Z" fill="#FFFBF5"/>
<path d="M125.189 66.8778C129.691 71.9696 131.831 132.339 131.831 132.339H127.551C127.551 132.339 129.34 127.038 126.751 125.168C122.047 120.323 66.5235 116.688 66.5235 116.688C66.4006 115.624 65.5703 111.394 64.4389 105.865C61.5732 91.7892 56.7827 69.3131 56.7827 69.3131C61.653 65.5496 125.189 66.8778 125.189 66.8778ZM93.7532 94.5503C99.134 94.5503 103.494 93.259 103.494 91.6724C103.494 90.0858 99.134 88.7945 93.7532 88.7945C88.3724 88.7945 84.0124 90.0858 84.0124 91.6724C84.0124 93.259 88.3724 94.5503 93.7532 94.5503ZM187.233 132.848C187.946 137.088 188.319 141.378 188.35 145.677C188.417 149.963 188.007 154.243 187.127 158.438C186.186 162.577 184.554 166.666 181.686 169.766C180.222 171.285 178.524 172.56 176.657 173.543L175.262 174.319C174.795 174.572 174.303 174.788 173.825 175.024C172.865 175.492 171.902 175.955 170.91 176.361C166.98 178.063 162.942 179.534 158.866 180.886C154.792 182.25 150.68 183.501 146.554 184.709C138.307 187.154 129.981 189.285 121.631 191.415C119.493 191.984 117.491 192.975 115.741 194.329C113.992 195.683 112.531 197.374 111.445 199.301C110.909 200.261 110.465 201.269 110.119 202.313C109.802 203.358 109.564 204.426 109.405 205.506L108.346 211.876C106.888 220.362 105.478 228.855 103.964 237.331L94.8644 288.181L95.291 287.813C88.9392 287.905 82.5708 287.821 76.231 287.481C73.0614 287.312 69.8953 287.074 66.7626 286.661C65.2041 286.462 63.6571 286.182 62.1275 285.823C61.3782 285.646 60.6411 285.422 59.9205 285.151C59.2549 284.92 58.6419 284.558 58.1172 284.088L58.273 284.516C58.7256 273.627 59.2674 262.736 59.8316 251.849C60.4031 240.962 61.1091 230.083 61.8226 219.206C62.5687 208.331 63.424 197.462 64.6004 186.628C65.1898 181.212 65.8813 175.806 66.7486 170.431C67.1902 167.745 67.6796 165.065 68.3374 162.426C68.6548 161.105 69.0515 159.805 69.5256 158.532C69.7621 157.898 70.0527 157.286 70.394 156.702C70.5373 156.403 70.7381 156.136 70.9849 155.915C71.2318 155.694 71.5198 155.524 71.8324 155.415L71.8375 155.414C71.8534 155.41 71.8673 155.401 71.8763 155.388C71.8853 155.374 71.8886 155.358 71.8855 155.342C71.8824 155.326 71.873 155.312 71.8596 155.303C71.8461 155.293 71.8296 155.29 71.8137 155.293C71.4786 155.398 71.1678 155.569 70.8995 155.795C70.6311 156.022 70.4107 156.299 70.251 156.612C69.8903 157.198 69.5808 157.813 69.3259 158.452C68.8194 159.723 68.39 161.025 68.0403 162.348C67.3193 164.986 66.7682 167.663 66.2645 170.346C65.2701 175.717 64.5554 181.131 63.8866 186.546C62.5777 197.381 61.5904 208.249 60.7126 219.124C59.8165 229.998 59.1733 240.889 58.5565 251.78C57.94 262.671 57.4425 273.569 57.0638 284.472L57.0631 284.492C57.0605 284.567 57.0731 284.642 57.1 284.712C57.1269 284.782 57.1677 284.846 57.2198 284.9C57.87 285.511 58.6424 285.977 59.4859 286.266C60.2571 286.553 61.0459 286.789 61.8474 286.974C63.42 287.335 65.0101 287.614 66.6115 287.811C69.7957 288.213 72.986 288.435 76.1759 288.588C82.558 288.86 88.9335 288.867 95.3145 288.703C95.4173 288.7 95.516 288.662 95.5938 288.595C95.6716 288.527 95.7237 288.435 95.7413 288.334L104.365 237.4C105.804 228.912 107.347 220.441 108.844 211.963L110 205.61C110.17 204.562 110.417 203.529 110.739 202.518C111.086 201.523 111.527 200.562 112.055 199.65C113.115 197.831 114.528 196.242 116.211 194.977C117.894 193.711 119.813 192.795 121.855 192.282C130.228 190.317 138.584 188.158 146.862 185.761C151.005 184.573 155.114 183.26 159.2 181.877C163.286 180.495 167.339 178.993 171.3 177.25C172.298 176.835 173.273 176.36 174.245 175.879C174.729 175.635 175.224 175.415 175.701 175.153L177.123 174.351C179.066 173.313 180.823 171.959 182.323 170.346C185.291 167.039 186.89 162.805 187.789 158.584C188.634 154.334 188.967 149.998 188.783 145.669C188.649 141.356 188.171 137.061 187.354 132.824C187.351 132.808 187.341 132.793 187.328 132.784C187.314 132.775 187.298 132.772 187.282 132.775C187.266 132.779 187.252 132.788 187.243 132.802C187.234 132.815 187.23 132.832 187.233 132.848ZM85.3408 296.117C85.3408 296.117 90.6539 295.563 90.6539 298.109C90.6539 300.655 90.2111 319.251 87.9973 319.804C85.7835 320.358 20.9192 342.717 3.65158 324.564C3.65158 324.564 -8.30293 317.923 14.2778 310.174C36.8586 302.426 51.0269 294.678 51.0269 294.678C51.0269 294.678 72.5007 295.342 72.9435 297.556C73.3863 299.769 70.0655 307.739 70.0655 307.739C70.0655 307.739 84.2339 311.06 85.3408 296.117Z" fill="#FFFBF5"/>
<path d="M85.3369 296.425C85.3626 296.424 85.3882 296.421 85.4132 296.415C85.4922 296.394 85.5599 296.344 85.6014 296.273C85.6429 296.203 85.6549 296.119 85.6346 296.04C85.3425 294.761 85.3054 293.436 85.5254 292.143C85.7455 290.849 86.2184 289.611 86.9172 288.501C86.9403 288.468 86.9567 288.43 86.9654 288.391C86.9741 288.351 86.975 288.311 86.9679 288.271C86.9609 288.231 86.9461 288.193 86.9244 288.159C86.9026 288.125 86.8744 288.096 86.8413 288.073C86.8083 288.049 86.7709 288.033 86.7315 288.024C86.6921 288.016 86.6513 288.015 86.6116 288.022C86.5718 288.029 86.5339 288.044 86.4998 288.065C86.4658 288.087 86.4364 288.115 86.4132 288.148C85.6549 289.328 85.1423 290.649 84.9062 292.031C84.6701 293.413 84.7153 294.829 85.0391 296.193C85.0561 296.26 85.0945 296.318 85.1484 296.36C85.2023 296.402 85.2686 296.425 85.3369 296.425ZM53.6798 294.985L53.6903 294.984C60.3826 294.761 66.9253 287.78 67.2004 287.483C67.2279 287.454 67.2493 287.419 67.2633 287.381C67.2774 287.343 67.2839 287.303 67.2824 287.262C67.2809 287.222 67.2714 287.182 67.2546 287.146C67.2378 287.109 67.2139 287.076 67.1843 287.048C67.1547 287.021 67.12 287 67.0821 286.986C67.0443 286.972 67.004 286.965 66.9636 286.967C66.9233 286.968 66.8836 286.977 66.8469 286.994C66.8102 287.011 66.7771 287.035 66.7496 287.065C66.6838 287.136 60.104 294.155 53.6694 294.37C53.5888 294.373 53.5125 294.407 53.457 294.466C53.4014 294.524 53.3711 294.602 53.3724 294.683C53.3738 294.763 53.4068 294.84 53.4643 294.897C53.5218 294.953 53.5992 294.985 53.6798 294.985Z" fill="#FFFBF5"/>
<path d="M208.035 129.581C208.08 129.572 208.125 129.572 208.169 129.563L208.223 129.509C208.159 129.529 208.096 129.553 208.035 129.581ZM188.59 150.66V150.714C188.563 150.553 188.536 150.401 188.509 150.241C188.536 150.384 188.563 150.518 188.59 150.66ZM65.7986 174.088V174.106C65.8343 174.115 65.8614 174.124 65.8971 174.133C65.8614 174.115 65.8343 174.106 65.7986 174.088Z" fill="white"/>
<path d="M216.972 180.664L215.921 199.154L214.961 217.647C214.634 223.811 214.201 229.972 214.094 236.144C214.047 239.23 214 242.317 214.032 245.406L214.084 250.04C214.137 251.586 214.157 253.131 214.241 254.678C214.243 254.701 214.253 254.723 214.269 254.739C214.286 254.755 214.307 254.765 214.331 254.766C214.354 254.767 214.376 254.759 214.394 254.744C214.411 254.729 214.423 254.708 214.426 254.685C214.624 253.148 214.757 251.609 214.925 250.071L215.317 245.454C215.577 242.375 215.758 239.293 215.938 236.212C216.286 230.049 216.308 223.873 216.436 217.701L216.842 199.188L217.156 180.67C217.157 180.646 217.148 180.623 217.131 180.605C217.114 180.588 217.091 180.578 217.067 180.577C217.043 180.576 217.02 180.584 217.002 180.601C216.984 180.617 216.973 180.639 216.972 180.664ZM166.719 215.644L166.202 234.474L165.778 253.304C165.629 259.581 165.374 265.857 165.446 272.136C165.487 275.275 165.53 278.414 165.651 281.554L165.836 286.264C165.935 287.834 165.999 289.404 166.128 290.975C166.13 290.998 166.14 291.019 166.157 291.035C166.174 291.051 166.197 291.06 166.22 291.06C166.243 291.06 166.265 291.052 166.282 291.036C166.3 291.021 166.31 290.999 166.313 290.976C166.466 289.408 166.555 287.839 166.678 286.271L166.937 281.564C167.108 278.427 167.199 275.288 167.29 272.15C167.46 265.874 167.304 259.594 167.253 253.316L167.124 234.481L166.903 215.646C166.903 215.622 166.893 215.598 166.876 215.581C166.859 215.564 166.836 215.555 166.811 215.555C166.787 215.554 166.764 215.564 166.747 215.58C166.729 215.597 166.719 215.62 166.719 215.644Z" fill="#FFFBF5"/>
<path d="M214.334 254.786C210.014 254.786 206.512 254.125 206.512 253.31C206.512 252.495 210.014 251.834 214.334 251.834C218.654 251.834 222.156 252.495 222.156 253.31C222.156 254.125 218.654 254.786 214.334 254.786Z" fill="#FFFBF5"/>
<path d="M166.518 291.277C162.198 291.277 158.696 290.616 158.696 289.801C158.696 288.986 162.198 288.325 166.518 288.325C170.838 288.325 174.34 288.986 174.34 289.801C174.34 290.616 170.838 291.277 166.518 291.277Z" fill="#FFFBF5"/>
<path d="M114.493 203.466L113.805 212.104L113.209 220.746C113.023 223.628 112.677 226.503 112.705 229.392C112.685 232.294 112.855 235.195 113.216 238.075C113.219 238.097 113.23 238.117 113.246 238.131C113.262 238.146 113.283 238.155 113.305 238.156C113.327 238.156 113.349 238.149 113.366 238.136C113.384 238.122 113.396 238.103 113.4 238.082C113.973 235.236 114.356 232.356 114.549 229.46C114.791 226.581 114.658 223.688 114.684 220.801L114.727 212.138L114.677 203.472C114.677 203.449 114.668 203.426 114.651 203.409C114.634 203.392 114.612 203.382 114.588 203.381C114.564 203.38 114.541 203.388 114.523 203.404C114.506 203.42 114.495 203.442 114.493 203.466ZM45.7677 183.683L45.2529 202.293L44.8302 220.903C44.682 227.107 44.4276 233.31 44.5 239.515C44.542 242.618 44.5843 245.72 44.7064 248.824L44.8919 253.479C44.9906 255.031 45.0547 256.582 45.1842 258.134C45.1861 258.157 45.1965 258.179 45.2135 258.195C45.2304 258.21 45.2526 258.219 45.2757 258.219C45.2988 258.22 45.3212 258.211 45.3384 258.196C45.3555 258.18 45.3663 258.159 45.3686 258.136C45.5223 256.586 45.6108 255.035 45.7337 253.485L45.9924 248.834C46.1629 245.733 46.2538 242.631 46.3447 239.529C46.5141 233.326 46.3571 227.12 46.3061 220.915L46.1751 202.3L45.9521 183.684C45.9519 183.66 45.9421 183.637 45.925 183.62C45.9079 183.603 45.8848 183.593 45.8606 183.593C45.8365 183.593 45.8132 183.602 45.7958 183.619C45.7784 183.635 45.7683 183.658 45.7677 183.683Z" fill="#FFFBF5"/>
<path d="M113.307 238.183C108.987 238.183 105.485 237.522 105.485 236.707C105.485 235.892 108.987 235.231 113.307 235.231C117.627 235.231 121.129 235.892 121.129 236.707C121.129 237.522 117.627 238.183 113.307 238.183Z" fill="#FFFBF5"/>
<path d="M45.5725 258.436C41.2525 258.436 37.7504 257.775 37.7504 256.96C37.7504 256.145 41.2525 255.484 45.5725 255.484C49.8925 255.484 53.3945 256.145 53.3945 256.96C53.3945 257.775 49.8925 258.436 45.5725 258.436Z" fill="#FFFBF5"/>
<path d="M127.553 132.645H131.831C131.912 132.644 131.99 132.612 132.047 132.554C132.105 132.496 132.137 132.418 132.137 132.337C132.137 132.256 132.105 132.178 132.047 132.12C131.99 132.062 131.912 132.03 131.831 132.029H127.553C127.471 132.03 127.393 132.062 127.336 132.12C127.279 132.178 127.246 132.256 127.246 132.337C127.246 132.418 127.279 132.496 127.336 132.554C127.393 132.612 127.471 132.644 127.553 132.645Z" fill="#FFFBF5"/>
<path d="M150.305 19.9508C151.566 20.1486 152.745 20.6848 153.754 21.5189C152.595 21.0944 151.404 20.7719 150.19 20.5538C149.59 20.4577 148.98 20.4123 148.367 20.4181C147.743 20.4388 147.116 20.5192 146.494 20.6586C147.087 20.2893 147.724 20.0472 148.372 19.9447C149.021 19.8486 149.671 19.8506 150.305 19.9508Z" fill="#FFFBF5"/>
</svg>
