<svg width="623" height="622" viewBox="0 0 623 622" fill="none" xmlns="http://www.w3.org/2000/svg">
<path fill-rule="evenodd" clip-rule="evenodd" d="M608.5 214.5C609.061 219.176 610.394 223.509 612.5 227.5C626.395 281.412 625.395 335.079 609.5 388.5C607.952 388.179 607.285 387.179 607.5 385.5C619.463 336.172 619.463 286.839 607.5 237.5C607.59 234.848 606.924 232.515 605.5 230.5C604.943 225.835 603.61 221.502 601.5 217.5C595.566 197.623 587.4 178.623 577 160.5C531.114 84.114 464.947 35.1141 378.5 13.5C375.781 12.087 372.781 11.4203 369.5 11.5C369.167 11.5 368.833 11.5 368.5 11.5C364.764 10.0109 360.764 9.34419 356.5 9.49999C322.912 4.95919 289.579 5.62579 256.5 11.5C251.23 11.7632 246.23 12.7632 241.5 14.5C231.241 16.698 221.241 19.698 211.5 23.5C208.848 23.4095 206.515 24.0762 204.5 25.5C191.952 30.439 179.619 35.939 167.5 42C83.483 89.481 31.8159 160.648 12.5 255.5C11.2154 258.589 10.5488 261.922 10.5 265.5C9.65249 273.849 8.65249 282.183 7.49999 290.5C6.19139 292.571 5.52479 295.071 5.49999 298C6.81119 307.834 6.81119 317.667 5.49999 327.5C6.06279 332.725 7.06279 337.725 8.49999 342.5C8.18879 347.766 8.85539 352.766 10.5 357.5C11.3686 359.717 11.702 362.05 11.5 364.5C11.4203 367.781 12.087 370.781 13.5 373.5C19.3851 403.031 29.5517 431.031 44 457.5C86.022 532.679 148.522 582.012 231.5 605.5C233.515 606.924 235.848 607.59 238.5 607.5C249.712 610.147 261.046 612.147 272.5 613.5C277.944 614.884 283.611 615.55 289.5 615.5C384.109 620.424 464.775 589.757 531.5 523.5C533.679 523.16 535.512 522.16 537 520.5C537.399 520.728 537.565 521.062 537.5 521.5C508.397 554.278 473.73 579.278 433.5 596.5C430.088 597.075 427.088 598.408 424.5 600.5C415.473 603.731 406.473 606.731 397.5 609.5C394.848 609.41 392.515 610.076 390.5 611.5C371.817 616.336 352.817 619.336 333.5 620.5C331.076 620.808 328.743 620.474 326.5 619.5C327.025 618.808 327.692 618.308 328.5 618C317.833 617.333 307.167 617.333 296.5 618C302.196 618.17 307.862 618.67 313.5 619.5C303.856 620.498 294.19 620.832 284.5 620.5C195.743 611.541 123.243 572.541 67 503.5C18.8792 439.783 -3.12081 367.783 0.999992 287.5C13.311 175.946 67.811 92.446 164.5 37C251.88 -6.78531 341.214 -11.1187 432.5 24C517.768 63.095 576.435 126.595 608.5 214.5Z" fill="#FFFBF5"/>
<path fill-rule="evenodd" clip-rule="evenodd" d="M171.5 51.5C173.688 52.623 176.021 52.623 178.5 51.5C177.508 53.026 176.008 53.693 174 53.5C172.833 53.167 171.667 52.833 170.5 52.5C170.624 51.8933 170.957 51.56 171.5 51.5Z" fill="#FFFBF5"/>
<path fill-rule="evenodd" clip-rule="evenodd" d="M178.5 51.5C176.021 52.623 173.688 52.623 171.5 51.5C171.953 50.5416 172.619 49.7083 173.5 49C183.315 44.9242 192.982 40.5908 202.5 36C218.476 30.7563 234.81 26.923 251.5 24.5C253.167 24.8333 254.833 25.1667 256.5 25.5C239.682 28.7046 223.015 32.8712 206.5 38C196.984 42.2588 187.651 46.7588 178.5 51.5Z" fill="#FFFBF5"/>
<path fill-rule="evenodd" clip-rule="evenodd" d="M393.5 26.5C439.478 38.8137 479.811 60.98 514.5 93C544.038 118.88 566.205 150.046 581 186.5C581.798 188.259 581.631 189.926 580.5 191.5C564.514 156.017 541.847 125.517 512.5 100C477.094 69.453 437.428 45.7863 393.5 29C392.402 28.2303 392.402 27.397 393.5 26.5Z" fill="#FFFBF5"/>
<path fill-rule="evenodd" clip-rule="evenodd" d="M211.5 23.5C209.485 24.9238 207.152 25.5905 204.5 25.5C206.515 24.0762 208.848 23.4095 211.5 23.5Z" fill="#FFFBF5"/>
<path fill-rule="evenodd" clip-rule="evenodd" d="M365.5 22.5C369.514 22.3345 373.514 22.5012 377.5 23C381.279 26.3027 380.445 28.136 375 28.5C372.144 28.1289 369.311 27.6289 366.5 27C364.452 25.7741 364.119 24.2741 365.5 22.5Z" fill="#FFFBF5"/>
<path fill-rule="evenodd" clip-rule="evenodd" d="M369.5 11.5C372.781 11.4203 375.781 12.087 378.5 13.5C375.219 13.5797 372.219 12.913 369.5 11.5Z" fill="#FFFBF5"/>
<path fill-rule="evenodd" clip-rule="evenodd" d="M256.5 11.5C251.911 13.875 246.911 14.875 241.5 14.5C246.23 12.7632 251.23 11.7632 256.5 11.5Z" fill="#FFFBF5"/>
<path fill-rule="evenodd" clip-rule="evenodd" d="M356.5 9.50001C360.764 9.34421 364.764 10.0109 368.5 11.5C364.236 11.6558 360.236 10.9891 356.5 9.50001Z" fill="#FFFBF5"/>
<path fill-rule="evenodd" clip-rule="evenodd" d="M140.5 69.5C145.39 69.639 145.723 71.139 141.5 74C138.833 76 136.167 78 133.5 80C131.866 80.494 130.199 80.66 128.5 80.5C128.297 78.61 128.963 77.11 130.5 76C134.069 74.058 137.402 71.892 140.5 69.5Z" fill="#FFFBF5"/>
<path fill-rule="evenodd" clip-rule="evenodd" d="M69.5 147.5C68.504 147.414 67.671 147.748 67 148.5C66.51 147.207 66.343 145.873 66.5 144.5C71.174 134.487 77.341 125.487 85 117.5C91.5 111 98 104.5 104.5 98C105.635 97.251 106.635 97.417 107.5 98.5C94.088 114.36 81.421 130.693 69.5 147.5Z" fill="#FFFBF5"/>
<path fill-rule="evenodd" clip-rule="evenodd" d="M66.5 144.5C66.343 145.873 66.51 147.207 67 148.5C67.671 147.748 68.504 147.414 69.5 147.5C62.76 157.972 56.2601 168.639 50 179.5C44.9783 190.539 40.8116 201.872 37.5 213.5C36.5 213.5 35.5 213.5 34.5 213.5C36.8215 201.703 40.6548 190.369 46 179.5C52.8734 167.738 59.707 156.071 66.5 144.5Z" fill="#FFFBF5"/>
<path fill-rule="evenodd" clip-rule="evenodd" d="M387.5 258.5C385.525 253.902 384.191 249.236 383.5 244.5C381.224 229.675 384.057 216.008 392 203.5C401.4 193.728 410.066 194.395 418 205.5C423.163 217.656 424.829 230.322 423 243.5C421.406 251.956 418.073 259.623 413 266.5C405.928 273.106 398.928 273.106 392 266.5C390.235 263.968 388.735 261.301 387.5 258.5Z" fill="#FFFBF5"/>
<path fill-rule="evenodd" clip-rule="evenodd" d="M232.5 244.5C231.388 246.599 230.721 248.933 230.5 251.5C228.593 259.336 224.26 265.336 217.5 269.5C213.143 269.414 208.81 269.08 204.5 268.5C195.789 259.381 191.789 248.381 192.5 235.5C191.685 220.525 196.685 208.025 207.5 198C215.575 195.108 222.075 197.274 227 204.5C233.27 217.202 235.103 230.535 232.5 244.5Z" fill="#FFFBF5"/>
<path fill-rule="evenodd" clip-rule="evenodd" d="M601.5 217.5C603.61 221.502 604.943 225.835 605.5 230.5C603.39 226.498 602.057 222.165 601.5 217.5Z" fill="#FFFBF5"/>
<path fill-rule="evenodd" clip-rule="evenodd" d="M608.5 214.5C610.658 218.507 611.991 222.84 612.5 227.5C610.394 223.509 609.061 219.176 608.5 214.5Z" fill="#FFFBF5"/>
<path fill-rule="evenodd" clip-rule="evenodd" d="M605.5 230.5C606.924 232.515 607.59 234.848 607.5 237.5C606.076 235.485 605.41 233.152 605.5 230.5Z" fill="#FFFBF5"/>
<path fill-rule="evenodd" clip-rule="evenodd" d="M232.5 244.5C232.829 247.228 232.163 249.562 230.5 251.5C230.721 248.933 231.388 246.599 232.5 244.5Z" fill="#FFFBF5"/>
<path fill-rule="evenodd" clip-rule="evenodd" d="M383.5 244.5C384.191 249.236 385.525 253.902 387.5 258.5C385.864 257.251 384.697 255.584 384 253.5C383.502 250.518 383.335 247.518 383.5 244.5Z" fill="#FFFBF5"/>
<path fill-rule="evenodd" clip-rule="evenodd" d="M12.5 255.5C12.6641 258.187 12.4974 260.854 12 263.5C11.7216 264.416 11.2216 265.082 10.5 265.5C10.5488 261.922 11.2154 258.589 12.5 255.5Z" fill="#FFFBF5"/>
<path fill-rule="evenodd" clip-rule="evenodd" d="M204.5 268.5C208.81 269.08 213.143 269.414 217.5 269.5C217.389 270.117 217.056 270.617 216.5 271C213.167 271.667 209.833 271.667 206.5 271C205.619 270.292 204.953 269.458 204.5 268.5Z" fill="#FFFBF5"/>
<path fill-rule="evenodd" clip-rule="evenodd" d="M606.5 285.5C605.518 288.962 605.185 292.629 605.5 296.5C604.185 291.32 604.185 285.986 605.5 280.5C606.452 282.045 606.785 283.712 606.5 285.5Z" fill="#FFFBF5"/>
<path fill-rule="evenodd" clip-rule="evenodd" d="M606.5 285.5C607.915 298.472 608.582 311.639 608.5 325C608.5 332.674 608.166 340.174 607.5 347.5C607.667 333.496 607.5 319.496 607 305.5C606.829 313.011 606.329 320.345 605.5 327.5C605.5 317.167 605.5 306.833 605.5 296.5C605.185 292.629 605.518 288.962 606.5 285.5Z" fill="#FFFBF5"/>
<path fill-rule="evenodd" clip-rule="evenodd" d="M7.5 290.5C7.3066 307.849 7.6399 325.182 8.5 342.5C7.0628 337.725 6.0628 332.725 5.5 327.5C6.8112 317.667 6.8112 307.834 5.5 298C5.5248 295.071 6.1914 292.571 7.5 290.5Z" fill="#FFFBF5"/>
<path fill-rule="evenodd" clip-rule="evenodd" d="M20.5 321.5C21.7373 326.96 22.404 332.627 22.5 338.5C20.9879 333.071 20.3213 327.404 20.5 321.5Z" fill="#FFFBF5"/>
<path fill-rule="evenodd" clip-rule="evenodd" d="M20.5 321.5C20.3213 327.404 20.9879 333.071 22.5 338.5C23.5413 344.79 24.208 351.123 24.5 357.5C24.3442 361.764 25.0109 365.764 26.5 369.5C27.5411 375.191 28.3745 380.858 29 386.5C25.7977 379.393 23.2977 372.06 21.5 364.5C21.5905 361.848 20.9238 359.515 19.5 357.5C15.7424 340.034 14.5757 322.368 16 304.5C16.4728 302.221 17.4728 300.221 19 298.5C20.464 305.993 20.964 313.66 20.5 321.5Z" fill="#FFFBF5"/>
<path fill-rule="evenodd" clip-rule="evenodd" d="M8.5 342.5C9.5926 347.306 10.2593 352.306 10.5 357.5C8.8554 352.766 8.1888 347.766 8.5 342.5Z" fill="#FFFBF5"/>
<path fill-rule="evenodd" clip-rule="evenodd" d="M19.5 357.5C20.9238 359.515 21.5905 361.848 21.5 364.5C20.0762 362.485 19.4095 360.152 19.5 357.5Z" fill="#FFFBF5"/>
<path fill-rule="evenodd" clip-rule="evenodd" d="M24.5 357.5C26.1357 361.21 26.8023 365.21 26.5 369.5C25.0109 365.764 24.3442 361.764 24.5 357.5Z" fill="#FFFBF5"/>
<path fill-rule="evenodd" clip-rule="evenodd" d="M607.5 347.5C604.229 374.918 597.063 401.251 586 426.5C585.833 425.5 585.667 424.5 585.5 423.5C591.621 401.684 597.121 379.684 602 357.5C604.024 347.598 605.19 337.598 605.5 327.5C606.329 320.345 606.829 313.011 607 305.5C607.5 319.496 607.667 333.496 607.5 347.5Z" fill="#FFFBF5"/>
<path fill-rule="evenodd" clip-rule="evenodd" d="M11.5 364.5C12.913 367.219 13.5797 370.219 13.5 373.5C12.087 370.781 11.4203 367.781 11.5 364.5Z" fill="#FFFBF5"/>
<path fill-rule="evenodd" clip-rule="evenodd" d="M545.5 369.5C545.655 372.716 544.655 375.383 542.5 377.5C543.129 374.603 544.129 371.936 545.5 369.5Z" fill="#FFFBF5"/>
<path fill-rule="evenodd" clip-rule="evenodd" d="M100.5 382.5C102.405 386.216 103.739 390.216 104.5 394.5C102.194 390.915 100.861 386.915 100.5 382.5Z" fill="#FFFBF5"/>
<path fill-rule="evenodd" clip-rule="evenodd" d="M97.5 389.5C98.871 391.936 99.871 394.603 100.5 397.5C98.345 395.383 97.345 392.716 97.5 389.5Z" fill="#FFFBF5"/>
<path fill-rule="evenodd" clip-rule="evenodd" d="M32.5 399.5C34.1439 399.286 35.6439 399.62 37 400.5C39.6286 405.993 40.7952 411.659 40.5 417.5C36.4103 412.094 33.7437 406.094 32.5 399.5Z" fill="#FFFBF5"/>
<path fill-rule="evenodd" clip-rule="evenodd" d="M100.5 382.5C100.861 386.915 102.194 390.915 104.5 394.5C127.572 450.739 166.572 491.906 221.5 518C228.746 520.804 236.079 523.304 243.5 525.5C247.502 527.61 251.835 528.943 256.5 529.5C258.515 530.924 260.848 531.59 263.5 531.5C268.477 532.327 273.477 532.994 278.5 533.5C282.919 534.972 287.586 535.638 292.5 535.5C327.094 538.341 360.761 534.007 393.5 522.5C395.129 524.06 396.296 523.727 397 521.5C397.333 521.833 397.667 522.167 398 522.5C400.311 520.89 402.811 519.557 405.5 518.5C406.604 519.631 406.271 520.465 404.5 521C405.094 521.464 405.761 521.631 406.5 521.5C404.727 522.892 402.727 524.059 400.5 525C392.981 528.006 385.314 530.506 377.5 532.5C371.906 533.232 366.573 534.565 361.5 536.5C352.167 537.833 342.833 539.167 333.5 540.5C322.518 541.286 311.518 541.619 300.5 541.5C282.776 541.196 265.442 538.529 248.5 533.5C245.495 531.723 242.162 530.723 238.5 530.5C177.196 510.36 133.029 471.026 106 412.5C104.056 407.499 102.223 402.499 100.5 397.5C99.871 394.603 98.871 391.936 97.5 389.5C96.438 384.314 94.771 379.314 92.5 374.5C91.833 374.167 91.167 373.833 90.5 373.5C85.31 375.343 79.976 376.343 74.5 376.5C74.5 375.5 74.5 374.5 74.5 373.5C88.949 371.734 98.282 363.734 102.5 349.5C106.083 348.27 107.249 349.604 106 353.5C103.149 359.203 100.315 364.87 97.5 370.5C98.505 374.518 99.505 378.518 100.5 382.5Z" fill="#FFFBF5"/>
<path fill-rule="evenodd" clip-rule="evenodd" d="M50.5 432.5C51.7942 433.29 52.9609 434.29 54 435.5C60.983 457.816 72.317 477.483 88 494.5C88.749 495.635 88.583 496.635 87.5 497.5C71.602 481.398 59.435 462.731 51 441.5C49.3374 438.544 49.1707 435.544 50.5 432.5Z" fill="#FFFBF5"/>
<path fill-rule="evenodd" clip-rule="evenodd" d="M545.5 369.5C544.129 371.936 543.129 374.603 542.5 377.5C523.866 428.978 491.866 470.144 446.5 501C433.952 509.385 420.619 516.218 406.5 521.5C405.761 521.631 405.094 521.464 404.5 521C406.271 520.465 406.604 519.631 405.5 518.5C402.811 519.557 400.311 520.89 398 522.5C397.667 522.167 397.333 521.833 397 521.5C396.296 523.727 395.129 524.06 393.5 522.5C453.096 500.738 497.596 461.738 527 405.5C534.457 389.127 540.29 372.294 544.5 355C542.781 351.599 540.614 348.432 538 345.5C535.669 342.689 536.169 341.189 539.5 341C544.996 350.759 553.329 356.592 564.5 358.5C564 359.881 563 360.547 561.5 360.5C557.489 359.498 553.489 358.498 549.5 357.5C547.565 361.304 546.232 365.304 545.5 369.5Z" fill="#FFFBF5"/>
<path fill-rule="evenodd" clip-rule="evenodd" d="M607.5 385.5C607.285 387.179 607.952 388.179 609.5 388.5C596.684 439.148 572.684 483.481 537.5 521.5C537.565 521.062 537.399 520.728 537 520.5C535.512 522.16 533.679 523.16 531.5 523.5C568.657 484.043 593.991 438.043 607.5 385.5Z" fill="#FFFBF5"/>
<path fill-rule="evenodd" clip-rule="evenodd" d="M243.5 525.5C248.165 526.057 252.498 527.39 256.5 529.5C251.835 528.943 247.502 527.61 243.5 525.5Z" fill="#FFFBF5"/>
<path fill-rule="evenodd" clip-rule="evenodd" d="M238.5 530.5C242.162 530.723 245.495 531.723 248.5 533.5C244.838 533.277 241.505 532.277 238.5 530.5Z" fill="#FFFBF5"/>
<path fill-rule="evenodd" clip-rule="evenodd" d="M256.5 529.5C259.152 529.41 261.485 530.076 263.5 531.5C260.848 531.59 258.515 530.924 256.5 529.5Z" fill="#FFFBF5"/>
<path fill-rule="evenodd" clip-rule="evenodd" d="M278.5 533.5C283.414 533.362 288.081 534.028 292.5 535.5C287.586 535.638 282.919 534.972 278.5 533.5Z" fill="#FFFBF5"/>
<path fill-rule="evenodd" clip-rule="evenodd" d="M377.5 532.5C376.77 534.045 375.437 534.878 373.5 535C369.582 536.156 365.582 536.656 361.5 536.5C366.573 534.565 371.906 533.232 377.5 532.5Z" fill="#FFFBF5"/>
<path fill-rule="evenodd" clip-rule="evenodd" d="M333.5 540.5C332.391 541.29 331.058 541.79 329.5 542C319.658 542.825 309.991 542.658 300.5 541.5C311.518 541.619 322.518 541.286 333.5 540.5Z" fill="#FFFBF5"/>
<path fill-rule="evenodd" clip-rule="evenodd" d="M528.5 507.5C529.497 507.47 530.164 507.97 530.5 509C517.521 529.647 500.354 545.814 479 557.5C478.5 557.167 478 556.833 477.5 556.5C488.46 547.01 499.46 537.51 510.5 528C516.709 521.295 522.709 514.462 528.5 507.5Z" fill="#FFFBF5"/>
<path fill-rule="evenodd" clip-rule="evenodd" d="M149.5 554.5C155.451 556.616 160.785 559.783 165.5 564C163.5 566 161.5 566 159.5 564C156.833 562 154.167 560 151.5 558C150.177 557.184 149.511 556.017 149.5 554.5Z" fill="#FFFBF5"/>
<path fill-rule="evenodd" clip-rule="evenodd" d="M454.5 567.5C456.5 567.5 458.5 567.5 460.5 567.5C460.67 568.822 460.337 569.989 459.5 571C454.275 573.446 448.942 575.613 443.5 577.5C441.431 577.176 441.098 576.342 442.5 575C446.732 572.725 450.732 570.225 454.5 567.5Z" fill="#FFFBF5"/>
<path fill-rule="evenodd" clip-rule="evenodd" d="M229.5 589.5C234.165 590.057 238.498 591.39 242.5 593.5C237.835 592.943 233.502 591.61 229.5 589.5Z" fill="#FFFBF5"/>
<path fill-rule="evenodd" clip-rule="evenodd" d="M227.5 594.5C231.162 594.723 234.495 595.723 237.5 597.5C233.838 597.277 230.505 596.277 227.5 594.5Z" fill="#FFFBF5"/>
<path fill-rule="evenodd" clip-rule="evenodd" d="M242.5 593.5C245.152 593.41 247.485 594.076 249.5 595.5C246.848 595.59 244.515 594.924 242.5 593.5Z" fill="#FFFBF5"/>
<path fill-rule="evenodd" clip-rule="evenodd" d="M229.5 589.5C233.502 591.61 237.835 592.943 242.5 593.5C244.515 594.924 246.848 595.59 249.5 595.5C259.053 597.81 268.719 599.477 278.5 600.5C283.269 601.889 288.269 602.556 293.5 602.5C310.832 603.314 328.166 603.648 345.5 603.5C342.702 604.969 339.702 605.802 336.5 606C302.793 609.761 269.793 606.927 237.5 597.5C234.495 595.723 231.162 594.723 227.5 594.5C212.011 589.798 197.345 583.298 183.5 575C185.167 574.333 186.833 574.333 188.5 575C201.904 580.6 215.571 585.434 229.5 589.5Z" fill="#FFFBF5"/>
<path fill-rule="evenodd" clip-rule="evenodd" d="M433.5 596.5C431.165 599.165 428.165 600.498 424.5 600.5C427.088 598.408 430.088 597.075 433.5 596.5Z" fill="#FFFBF5"/>
<path fill-rule="evenodd" clip-rule="evenodd" d="M278.5 600.5C283.731 600.444 288.731 601.111 293.5 602.5C288.269 602.556 283.269 601.889 278.5 600.5Z" fill="#FFFBF5"/>
<path fill-rule="evenodd" clip-rule="evenodd" d="M231.5 605.5C234.152 605.41 236.485 606.076 238.5 607.5C235.848 607.59 233.515 606.924 231.5 605.5Z" fill="#FFFBF5"/>
<path fill-rule="evenodd" clip-rule="evenodd" d="M397.5 609.5C395.562 611.163 393.228 611.829 390.5 611.5C392.515 610.076 394.848 609.41 397.5 609.5Z" fill="#FFFBF5"/>
<path fill-rule="evenodd" clip-rule="evenodd" d="M272.5 613.5C278.404 613.321 284.071 613.988 289.5 615.5C283.611 615.55 277.944 614.884 272.5 613.5Z" fill="#FFFBF5"/>
<path fill-rule="evenodd" clip-rule="evenodd" d="M333.5 620.5C317.167 621.833 300.833 621.833 284.5 620.5C294.19 620.832 303.856 620.498 313.5 619.5C307.862 618.67 302.196 618.17 296.5 618C307.167 617.333 317.833 617.333 328.5 618C327.692 618.308 327.025 618.808 326.5 619.5C328.743 620.474 331.076 620.808 333.5 620.5Z" fill="#FFFBF5"/>
</svg>
